<svg xmlns="http://www.w3.org/2000/svg" viewBox="0 0 1715.74 1922.8"><defs><style>.cls-1{fill:#312783;}.cls-2,.cls-4{fill:#fff;}.cls-3{fill:none;stroke:#312783;stroke-miterlimit:10;stroke-width:4px;}.cls-4{font-size:72px;font-family:TrebuchetMS-Italic, Trebuchet MS;font-style:italic;}</style></defs><title>logo</title><g id="Laag_8" data-name="Laag 8"><circle class="cls-1" cx="895.41" cy="1102.47" r="820.33"/></g><g id="Laag_10" data-name="Laag 10"><circle class="cls-2" cx="427.51" cy="427.51" r="362.83"/></g><g id="Laag_6" data-name="Laag 6"><polygon class="cls-1" points="689.08 215.91 746.41 291.91 532.84 415.35 512.44 384.9 488.41 335.24 689.08 215.91"/><polygon class="cls-1" points="453.75 506.58 452.32 511.98 447.63 529.72 422.45 624.94 395.75 725.91 258.41 734.58 322.41 520.58 354.24 517.18 377.38 514.72 453.75 506.58"/><path class="cls-1" d="M390.67,398l114.67,42a128.25,128.25,0,0,0-17.25,11.63c-25.17,20-39.75,46.42-39.76,67.87l-19.66,21.14L312.67,488Z" transform="translate(-126.92 -88.09)"/><polyline class="cls-3" points="422.45 624.94 448.74 664.2 553.56 656.03"/><polyline class="cls-3" points="624.49 574.74 590.61 501.63 532.84 415.35"/><line class="cls-3" x1="512.44" y1="384.9" x2="504.97" y2="373.74"/><polyline class="cls-3" points="467.92 528.13 553.56 656.03 624.49 574.74 538.85 446.85"/><path class="cls-3" d="M516.38,550.91a122.35,122.35,0,0,0,35-19.75,126.57,126.57,0,0,0,22.13-22.59" transform="translate(-126.92 -88.09)"/><polyline class="cls-3" points="512.44 384.9 528.41 417.91 532.84 415.35"/><polygon class="cls-3" points="532.84 415.35 746.41 291.91 689.08 215.91 488.41 335.24 512.44 384.9 532.84 415.35"/><polyline class="cls-3" points="378.42 351.94 263.75 309.91 185.75 399.91 301.75 452.58 321.41 431.44"/><polyline class="cls-3" points="377.38 514.72 453.75 506.58 452.32 511.98"/><path class="cls-3" d="M460,546.82l-3.9,4.47,25,54,23.14-2.46a32.77,32.77,0,0,1-3.1-3.34l-3-41.12c12.52,15.71,43.17,12.11,68.47-8.05s35.66-49.23,23.15-64.93l39.41,12.1c17.49,21.95,3,62.58-32.35,90.75a129.07,129.07,0,0,1-17.65,11.85l-4.69,17.74,20.29-1.59,70.93-81.28-33.88-73.11L591.15,465" transform="translate(-126.92 -88.09)"/><path class="cls-3" d="M573.56,508.57c-2.47,9.83-9.62,20.56-20.38,29.13-12.17,9.69-26,14.27-36.8,13.21" transform="translate(-126.92 -88.09)"/><path class="cls-3" d="M505.34,440a128.25,128.25,0,0,0-17.25,11.63c-25.17,20-39.75,46.42-39.76,67.87" transform="translate(-126.92 -88.09)"/><line class="cls-3" x1="422.45" y1="624.94" x2="447.63" y2="529.72"/><polyline class="cls-3" points="354.24 517.18 322.41 520.58 258.41 734.58 395.75 725.91 422.45 624.94"/><path class="cls-3" d="M448.33,519.53c0,8.68,2.37,16.56,7.41,22.88a32,32,0,0,0,4.3,4.41" transform="translate(-126.92 -88.09)"/><path class="cls-3" d="M591.15,465c.34-9.35-2-17.86-7.37-24.6-14.72-18.47-47.39-17.83-78.44-.37" transform="translate(-126.92 -88.09)"/><path class="cls-3" d="M460,546.82c9.16,7.83,22.66,10.6,37.8,8.62a90.31,90.31,0,0,0,18.54-4.53c-6.05-.59-11.17-2.94-14.54-7.17-9.38-11.78-1.61-33.57,17.36-48.68s41.95-17.82,51.33-6c4.06,5.09,4.9,12.06,3,19.55,10.91-14.49,17.1-29.94,17.59-43.57" transform="translate(-126.92 -88.09)"/></g><g id="Laag_11" data-name="Laag 11"><text class="cls-4" transform="translate(279.81 847.81) rotate(16.33)">S</text><text class="cls-4" transform="translate(353.72 865.9) rotate(6.17)">E</text><text class="cls-4" transform="matrix(1, 0, 0, 1, 436.11, 869.04)">N</text><text class="cls-4" transform="translate(531.1 857.9) rotate(-16.8)">T</text><text class="cls-4" transform="translate(601.64 833.5) rotate(-24.83)">I</text><text class="cls-4" transform="matrix(0.83, -0.56, 0.56, 0.83, 652.09, 808.13)">N</text><text class="cls-4" transform="matrix(0.71, -0.71, 0.71, 0.71, 725.85, 752.91)">E</text><text class="cls-4" transform="translate(779.28 694.26) rotate(-55.01)">L</text><text class="cls-4" transform="matrix(0.43, -0.9, 0.9, 0.43, 819.72, 630.77)">S</text><text class="cls-4" transform="matrix(0.26, -0.97, 0.97, 0.26, 850.03, 558.96)">A</text><text class="cls-4" transform="translate(866.6 486.64) rotate(-84.47)">T</text></g></svg>