<?xml version="1.0" encoding="utf-8"?>
<!-- Generator: Adobe Illustrator 23.0.6, SVG Export Plug-In . SVG Version: 6.00 Build 0)  -->
<svg version="1.1" id="Layer_1" xmlns="http://www.w3.org/2000/svg" xmlns:xlink="http://www.w3.org/1999/xlink" x="0px" y="0px"
	 viewBox="0 0 512 512" style="enable-background:new 0 0 512 512;" xml:space="preserve">
<style type="text/css">
	.st0{clip-path:url(#SVGID_2_);}
	.st1{fill:#FFFFFF;}
	.st2{fill:#7A7A7A;}
	.st3{fill:#ECF0F1;}
	.st4{clip-path:url(#SVGID_4_);}
	.st5{fill:#1876B4;}
	.st6{fill:#71CD51;}
	.st7{fill:#35495E;}
</style>
<g>
	<g>
		<defs>
			<path id="SVGID_3_" d="M462.5,275.9c0,108.9-88.3,197.2-197.2,197.2c-20.3,0-40-3.1-58.4-8.8c-43.3-13.4-80.2-41.3-105.1-78.1
				c-21.3-31.5-33.7-69.5-33.7-110.4c0-108.9,88.3-197.2,197.2-197.2S462.5,167,462.5,275.9z"/>
		</defs>
		<clipPath id="SVGID_2_">
			<use xlink:href="#SVGID_3_"  style="overflow:visible;"/>
		</clipPath>
		<g class="st0">
			<circle class="st5" cx="265.3" cy="275.9" r="197.2"/>
			<path class="st6" d="M125.1,177.3c20,0,40-0.2,59.9,0.1c22.2,0.3,35.5,20.3,27.5,41c-4.2,10.9-14.7,17.7-28,17.7
				c-39.3,0.1-78.6,0-118,0.1c-13.2,0-23.7-6.2-27.6-18.5c-5.3-16.7,0.6-32.3,17-39.2c2.1-0.9,4.5-1.2,6.7-1.2
				c20.8-0.1,41.6-0.1,62.4-0.1C125.1,177.1,125.1,177.2,125.1,177.3z"/>
			<path class="st6" d="M135.1,242c13.4,0,26.8-0.1,40.2,0c14.9,0.2,23.8,11.6,18.5,23.3c-2.8,6.2-9.8,10.1-18.8,10.1
				c-26.4,0-52.7,0-79.1,0c-8.9,0-15.9-3.5-18.5-10.5c-3.5-9.5,0.4-18.4,11.4-22.3c1.4-0.5,3-0.7,4.5-0.7
				C107.2,241.9,121.1,241.9,135.1,242C135.1,241.9,135.1,241.9,135.1,242z"/>
			<path class="st1" d="M198.3,189.8c8.3,0,16.6-0.1,24.8,0c9.2,0.1,14.7,8.4,11.4,17c-1.7,4.5-6.1,7.3-11.6,7.3
				c-16.3,0-32.6,0-48.9,0c-5.5,0-9.8-2.6-11.4-7.7c-2.2-6.9,0.3-13.4,7-16.2c0.8-0.4,1.8-0.5,2.8-0.5
				C181.1,189.8,189.7,189.8,198.3,189.8C198.3,189.8,198.3,189.8,198.3,189.8z"/>
			<path class="st1" d="M389.2,214.7c10.5,0,21.1-0.1,31.6,0c11.7,0.2,18.7,10.7,14.5,21.6c-2.2,5.8-7.8,9.3-14.8,9.4
				c-20.8,0-41.5,0-62.3,0c-7,0-12.5-3.3-14.6-9.8c-2.8-8.8,0.3-17,9-20.7c1.1-0.5,2.4-0.6,3.5-0.6
				C367.2,214.6,378.2,214.6,389.2,214.7C389.2,214.7,389.2,214.7,389.2,214.7z"/>
			<path class="st1" d="M193,381.2c14.4,0,28.8-0.2,43.3,0c16,0.2,25.6,14.7,19.9,29.6c-3,7.9-10.6,12.8-20.2,12.8
				c-28.4,0-56.8,0-85.2,0c-9.6,0-17.1-4.5-19.9-13.4c-3.8-12.1,0.4-23.3,12.2-28.3c1.5-0.6,3.2-0.9,4.8-0.9c15-0.1,30.1,0,45.1,0
				C193,381.1,193,381.2,193,381.2z"/>
			<path class="st6" d="M109.8,316c16.5,0,33-0.2,49.5,0.1c18.4,0.3,29.3,16.8,22.7,33.8c-3.5,9-12.1,14.6-23.1,14.6
				c-32.5,0-64.9,0-97.4,0c-10.9,0-19.6-5.1-22.8-15.3c-4.4-13.8,0.5-26.6,14-32.3c1.7-0.7,3.7-1,5.5-1c17.2-0.1,34.4,0,51.6,0
				C109.8,315.9,109.8,315.9,109.8,316z"/>
			<path class="st6" d="M443.5,298.7c16.5,0,33-0.2,49.5,0.1c18.4,0.3,29.3,16.8,22.7,33.8c-3.5,9-12.1,14.6-23.1,14.6
				c-32.5,0-64.9,0-97.4,0c-10.9,0-19.6-5.1-22.8-15.3c-4.4-13.8,0.5-26.6,14-32.3c1.7-0.7,3.7-1,5.5-1c17.2-0.1,34.4,0,51.6,0
				C443.5,298.6,443.5,298.7,443.5,298.7z"/>
			<path class="st1" d="M374,331.8c10.5,0,21.1-0.1,31.6,0c11.7,0.2,18.7,10.7,14.5,21.6c-2.2,5.8-7.8,9.3-14.8,9.4
				c-20.8,0-41.5,0-62.3,0c-7,0-12.5-3.3-14.6-9.8c-2.8-8.8,0.3-17,9-20.7c1.1-0.5,2.4-0.6,3.5-0.6C352,331.7,363,331.7,374,331.8
				C374,331.7,374,331.8,374,331.8z"/>
		</g>
	</g>
	<g id="GrwFyB.tif_1_">
		<g>
			<path class="st7" d="M398.2,69.3c20.2,16.3,40.1,32.3,60.1,48.5c-16.6,15.2-33.5,30.6-50.9,46.4c-10.6-17-24.8-29.4-44-36.4
				C375.3,107.8,386.9,88.4,398.2,69.3z"/>
			<path class="st7" d="M355,115.6c-18.8-15.2-37.3-30.1-55.4-44.7C310,58,320.6,44.8,330.9,32c15.8,12.7,32.1,25.9,48.7,39.3
				C371.6,85.7,363.3,100.6,355,115.6z"/>
			<path class="st7" d="M509.4,176.2c-10.2,12.7-20.7,25.8-31.3,39c-0.9-0.7-1.9-1.4-2.9-2.2c-17.6-14.2-35.2-28.3-53.1-42.8
				c13-11.5,25.8-22.7,38.2-33.7C476.9,149.9,493.2,163,509.4,176.2z"/>
			<path class="st7" d="M396.4,216c-27.3-22-53.5-43.1-80-64.5c3.1-4.5,8-6.6,13-8.2c36.6-12.4,77,21.5,71.1,59.7
				C399.8,207.2,397.9,211.3,396.4,216z"/>
		</g>
	</g>
	<path class="st3" d="M19.2,322.5c0,0,169.2,42.7,330.7-125.6c0,0-177.6,252.9-177.7,253C172,450,19.2,322.5,19.2,322.5z"/>
	<path class="st3" d="M67.8,276.2c0,0-81.3,27.8-61.7,47.5c0,0,57,126.1,166.1,126.1L50.8,335c0,0-8.7-18.9,17.9-39.1"/>
</g>
</svg>
